<svg width="16" height="18" viewBox="0 0 16 18" fill="none" xmlns="http://www.w3.org/2000/svg">
<path d="M8 3V11.4C8 12.6601 8 13.2902 8.24524 13.7715C8.46095 14.1948 8.80516 14.539 9.22852 14.7548C9.70982 15 10.3399 15 11.6 15H11.75M11.75 15C11.75 15.8284 12.4216 16.5 13.25 16.5C14.0784 16.5 14.75 15.8284 14.75 15C14.75 14.1716 14.0784 13.5 13.25 13.5C12.4216 13.5 11.75 14.1716 11.75 15ZM4.25 3L11.75 3M4.25 3C4.25 3.82843 3.57843 4.5 2.75 4.5C1.92157 4.5 1.25 3.82843 1.25 3C1.25 2.17157 1.92157 1.5 2.75 1.5C3.57843 1.5 4.25 2.17157 4.25 3ZM11.75 3C11.75 3.82843 12.4216 4.5 13.25 4.5C14.0784 4.5 14.75 3.82843 14.75 3C14.75 2.17157 14.0784 1.5 13.25 1.5C12.4216 1.5 11.75 2.17157 11.75 3ZM8 9H11.75M11.75 9C11.75 9.82843 12.4216 10.5 13.25 10.5C14.0784 10.5 14.75 9.82843 14.75 9C14.75 8.17157 14.0784 7.5 13.25 7.5C12.4216 7.5 11.75 8.17157 11.75 9Z" stroke="#9C612A" stroke-width="1.5" stroke-linecap="round" stroke-linejoin="round"/>
</svg>
