<svg width="188" height="32" viewBox="0 0 188 32" fill="none" xmlns="http://www.w3.org/2000/svg">
<path d="M49.6231 21.7911L50.7178 19.0876C51.7796 19.7313 53.6791 20.6325 55.3851 20.6325C56.6725 20.6325 57.7666 19.9561 57.7666 18.5722C57.7666 17.1239 56.576 16.6733 55.0309 16.2227C52.6814 15.5147 50.074 14.7418 50.074 11.4268C50.074 8.04695 52.8421 6.30898 55.9322 6.30898C58.3463 6.30898 60.4383 7.27452 61.7581 8.59409L59.9232 10.8148C58.7002 9.78491 57.3482 9.10903 56.0286 9.10903C54.8379 9.10903 53.7432 9.68835 53.7432 11.0727C53.7432 12.4567 54.9986 12.9073 56.6084 13.4227C58.9256 14.1947 61.5655 14.9993 61.5655 18.283C61.5655 21.6624 59.0869 23.4647 55.4817 23.4647C52.7132 23.4647 50.4283 22.467 49.6231 21.7911Z" fill="#449834"/>
<path d="M72.6999 17.8641V9.5279C72.2166 9.30215 71.2516 9.07686 70.2538 9.07686C67.1959 9.07686 66.1655 11.9739 66.1655 15.4498C66.1655 18.0894 66.8418 20.6325 69.5136 20.6325C71.5734 20.6325 72.6999 19.2481 72.6999 17.8641ZM62.3999 15.579C62.3999 9.91365 65.2004 6.30898 70.7366 6.30898C71.8309 6.30898 74.1804 6.566 76.4659 7.43544V19.8922L76.7878 22.9819H73.4723L73.247 21.2761L73.1183 21.244C72.2493 22.4992 70.8332 23.4647 68.6763 23.4647C63.816 23.4647 62.3999 19.7952 62.3999 15.579Z" fill="#449834"/>
<path d="M78.4597 14.9675C78.4597 8.49752 82.4833 6.30898 85.8948 6.30898C87.9868 6.30898 90.2724 6.95267 91.8172 9.36651L89.4034 11.3624C88.47 10.1068 87.4079 9.36651 86.0236 9.36651C83.8028 9.36651 82.2902 11.1045 82.2902 14.8062C82.2902 18.1543 83.5132 20.4072 86.3776 20.4072C87.6332 20.4072 88.7597 20.021 90.0793 19.055L91.5276 21.6302C90.2724 22.6601 88.3087 23.4647 85.927 23.4647C81.1954 23.4647 78.4597 20.4072 78.4597 14.9675Z" fill="#449834"/>
<path d="M96.7401 0.611574V8.17586C97.8026 6.88802 99.444 6.30915 101.086 6.30915C104.433 6.30915 106.236 8.17585 106.236 11.9741V22.9821H102.405V12.65C102.405 10.7511 102.019 9.27012 99.959 9.27012C98.1245 9.27012 96.7401 10.815 96.7401 12.4569V22.9821H92.9097V0.611574H96.7401Z" fill="#449834"/>
<path d="M112.672 6.79135V22.982H108.841V6.79135H112.672ZM108.552 2.12459C108.552 0.96595 109.421 -6.67572e-05 110.741 -6.67572e-05C112.06 -6.67572e-05 112.961 0.933306 112.961 2.12459C112.961 3.3476 112.028 4.28095 110.741 4.28095C109.421 4.28095 108.552 3.37979 108.552 2.12459Z" fill="#449834"/>
<path d="M124.999 23.7225V20.8902C121.587 22.596 119.592 24.3344 119.592 26.5552C119.592 28.0683 120.493 28.6471 121.844 28.6471C124.291 28.6471 124.999 26.5873 124.999 23.7225ZM124.967 16.2874V9.49552C124.259 9.23804 123.422 9.07714 122.456 9.07714C120.267 9.07714 118.433 10.7185 118.433 14.3237C118.433 16.6736 118.787 19.4415 121.877 19.4415C123.583 19.4415 124.967 18.2506 124.967 16.2874ZM116.18 27.1667C116.18 24.6241 117.918 22.8535 120.042 21.4695C117.274 21.1477 114.603 19.2484 114.603 14.5168C114.603 9.04496 117.918 6.30926 122.553 6.30926C124.388 6.30926 126.963 6.66283 128.797 7.43572V21.0829C128.797 22.1454 128.733 24.0126 128.54 24.9781C127.993 29.066 125.675 31.4799 121.587 31.4799C118.015 31.4799 116.18 29.838 116.18 27.1667Z" fill="#449834"/>
<path d="M131.402 17.7681V6.79177H135.232V17.0595C135.232 19.0233 135.619 20.4716 137.775 20.4716C139.481 20.4716 140.93 18.9267 140.93 17.3818V6.79177H144.76V20.2784L145.017 22.9824H141.735L141.477 21.0831H141.413C140.286 22.6932 138.58 23.4334 136.746 23.4334C133.205 23.4334 131.402 21.5341 131.402 17.7681Z" fill="#449834"/>
<path d="M147.398 6.79147H150.552L150.939 9.1092C151.647 7.30687 153.224 6.30915 154.833 6.30915C155.799 6.30915 156.797 6.53443 157.409 6.92065L156.733 10.1069C156.089 9.78508 155.284 9.52807 154.447 9.52807C152.709 9.52807 151.583 10.9115 151.518 12.7787V22.9821H147.688V9.36668L147.398 6.79147Z" fill="#449834"/>
<path d="M158.243 17.7681V6.79177H162.073V17.0595C162.073 19.0233 162.46 20.4716 164.616 20.4716C166.322 20.4716 167.771 18.9267 167.771 17.3818V6.79177H171.601V20.2784L171.858 22.9824H168.576L168.318 21.0831H168.253C167.127 22.6932 165.421 23.4334 163.587 23.4334C160.046 23.4334 158.243 21.5341 158.243 17.7681Z" fill="#449834"/>
<path d="M40.972 23.4559C41.4078 23.4665 41.8449 23.4361 42.2747 23.3699C42.5423 23.329 42.8261 23.2899 43.0836 23.2044C43.48 23.1005 43.8678 22.9635 44.2399 22.7925C44.608 22.6228 44.9606 22.4196 45.2909 22.1846C45.6257 21.9469 45.9373 21.6761 46.2209 21.3791C46.5163 21.0692 46.7812 20.7308 47.0142 20.3713C47.2631 19.9878 47.4758 19.5804 47.6548 19.1593C47.85 18.7 48.0056 18.2241 48.127 17.7399C48.2615 17.2038 48.3549 16.6586 48.4151 16.1091C48.4767 15.5486 48.5038 14.9845 48.5038 14.4204C48.5038 7.04963 43.8688 6.30939 41.4868 6.30939C38.5859 6.30939 35.0195 7.73884 34.1734 12.5812C34.0525 13.2732 33.9714 14.0608 33.9714 14.8976C33.9714 16.3146 34.1497 17.5206 34.454 18.5754C34.3264 17.6907 34.3512 16.7841 34.5303 15.968C34.6183 15.5679 34.749 15.1771 34.9188 14.8038C34.9599 14.7137 35.0026 14.6259 35.047 14.5394C35.4759 13.7058 36.0621 13.0534 36.8263 12.5026C38.3051 11.4359 40.1608 10.8171 41.9775 11.2631C41.9775 11.2631 45.7476 12.0033 46.7232 15.3091C46.7232 15.3091 45.3274 14.3757 43.4893 15.6208L41.0881 17.3105C41.0881 17.3105 39.5762 18.4669 38.0345 18.2002C37.2417 18.0333 36.2723 17.1928 36.3396 16.2705C36.4463 14.8084 37.9086 13.5665 39.2134 13.1288C40.5272 12.6883 41.999 12.755 43.3329 13.07C43.1281 12.8727 42.7503 12.6824 42.5236 12.578C39.5176 11.1918 35.6551 13.2769 35.1061 16.4953C34.7011 18.8692 36.0025 21.6766 38.1929 22.7851C38.7628 23.0734 39.393 23.2531 40.0203 23.3626C40.3344 23.4178 40.6529 23.4476 40.972 23.4559Z" fill="#449834"/>
<path d="M20.7519 29.2099C20.7519 27.9763 19.9325 27.0821 18.6904 27.0821C17.4571 27.0821 16.6211 27.9763 16.6211 29.2099C16.6211 30.4431 17.4571 31.3373 18.6904 31.3373C19.9325 31.3373 20.7519 30.4431 20.7519 29.2099ZM16 29.2099C16 27.6117 17.0929 26.4531 18.6904 26.4531C20.288 26.4531 21.3728 27.6117 21.3728 29.2099C21.3728 30.8077 20.288 31.9663 18.6904 31.9663C17.0929 31.9663 16 30.8077 16 29.2099Z" fill="#9C612A"/>
<path d="M28.9455 28.0925L27.6709 31.9004H27.0746L26.1141 29.0778L25.1374 31.9004H24.5411L23.2831 28.0925H23.9041L24.8725 31.0562L25.8992 28.0925H26.3296L27.348 31.0562L28.3245 28.0925H28.9455Z" fill="#9C612A"/>
<path d="M34.3161 29.5578V31.9004H33.7198V29.6406C33.7198 28.9118 33.2067 28.556 32.6436 28.556C32.0725 28.556 31.5757 28.9118 31.5757 29.6406V31.9004H30.9794V28.0925H31.5757V28.6056C31.8654 28.2084 32.3288 28.0346 32.8008 28.0346C33.5627 28.0346 34.3161 28.4815 34.3161 29.5578Z" fill="#9C612A"/>
<path d="M39.4948 29.2099C39.4948 28.8789 39.7436 28.6302 40.0746 28.6302C40.4141 28.6302 40.6622 28.8789 40.6622 29.2099C40.6622 29.541 40.4141 29.7975 40.0746 29.7975C39.7436 29.7975 39.4948 29.541 39.4948 29.2099Z" fill="#9C612A"/>
<path d="M48.2768 31.9663C46.6793 31.9663 45.5866 30.8077 45.5866 29.2099C45.5866 27.6117 46.6793 26.4531 48.2768 26.4531C49.2287 26.4531 49.9908 26.8669 50.4542 27.529L49.941 27.8936C49.5601 27.3639 48.964 27.0821 48.2768 27.0821C47.0435 27.0821 46.2075 27.9763 46.2075 29.2099C46.2075 30.4431 47.0435 31.3373 48.2768 31.3373C49.2954 31.3373 50.0486 30.6831 50.156 29.6486H48.2522V29.0692H50.86V29.3341C50.8103 30.8656 49.8333 31.9663 48.2768 31.9663Z" fill="#9C612A"/>
<path d="M55.0801 28.0346V28.6056C54.4919 28.6139 53.7388 28.9201 53.7388 29.8475V31.9004H53.1428V28.0925H53.7388V28.7959C54.0285 28.2746 54.5416 28.0428 55.0801 28.0346Z" fill="#9C612A"/>
<path d="M60.0619 29.9965C60.0619 29.1937 59.532 28.6057 58.7289 28.6057C57.9261 28.6057 57.3879 29.1937 57.3879 29.9965C57.3879 30.7997 57.9261 31.3956 58.7289 31.3956C59.532 31.3956 60.0619 30.7997 60.0619 29.9965ZM56.7919 29.9965C56.7919 28.8539 57.5866 28.0263 58.7289 28.0263C59.8715 28.0263 60.6662 28.8539 60.6662 29.9965C60.6662 31.1308 59.8715 31.9754 58.7289 31.9754C57.5866 31.9754 56.7919 31.1308 56.7919 29.9965Z" fill="#9C612A"/>
<path d="M68.0741 28.0925L66.7991 31.9004H66.2028L65.2428 29.0778L64.2662 31.9004H63.6699L62.4115 28.0925H63.0326L64.0009 31.0562L65.0276 28.0925H65.458L66.4764 31.0562L67.4529 28.0925H68.0741Z" fill="#9C612A"/>
<path d="M72.922 29.2099C72.922 28.8789 73.1707 28.6302 73.5013 28.6302C73.8411 28.6302 74.0894 28.8789 74.0894 29.2099C74.0894 29.541 73.8411 29.7975 73.5013 29.7975C73.1707 29.7975 72.922 29.541 72.922 29.2099Z" fill="#9C612A"/>
<path d="M81.7034 27.0821C80.4703 27.0821 79.6339 27.9763 79.6339 29.2099C79.6339 30.4431 80.4703 31.3373 81.7034 31.3373C82.4404 31.3373 83.0363 30.9815 83.3756 30.501L83.8809 30.8822C83.4174 31.5525 82.6556 31.9663 81.7034 31.9663C80.1061 31.9663 79.0132 30.8077 79.0132 29.2099C79.0132 27.6117 80.1061 26.4531 81.7034 26.4531C82.6556 26.4531 83.4174 26.8669 83.8809 27.5373L83.3756 27.9018C83.0363 27.4214 82.4404 27.0821 81.7034 27.0821Z" fill="#9C612A"/>
<path d="M89.4008 29.5578V31.9004H88.8044V29.6406C88.8044 28.9118 88.2909 28.556 87.7281 28.556C87.1571 28.556 86.6605 28.9118 86.6605 29.6406V31.9004H86.0642V26.5196H86.6605V28.6056C86.9497 28.2084 87.4131 28.0346 87.8853 28.0346C88.6472 28.0346 89.4008 28.4815 89.4008 29.5578Z" fill="#9C612A"/>
<path d="M92.2297 29.773H94.7957C94.713 29.0525 94.2413 28.5229 93.5291 28.5229C92.7842 28.5229 92.3125 29.0277 92.2297 29.773ZM95.3507 29.9965V30.1868H92.2297C92.3042 30.9482 92.8256 31.4535 93.5787 31.4535C94.1419 31.4535 94.5309 31.197 94.7461 30.8737L95.1682 31.1804C94.8371 31.6687 94.2744 31.9754 93.5787 31.9754C92.4201 31.9754 91.6499 31.1307 91.6499 29.9965C91.6499 28.8622 92.387 28.0263 93.5291 28.0263C94.622 28.0263 95.3507 28.8622 95.3507 29.9965Z" fill="#9C612A"/>
<path d="M99.538 28.0346V28.6056C98.9499 28.6139 98.1968 28.9201 98.1968 29.8475V31.9004H97.6005V28.0925H98.1968V28.7959C98.4865 28.2746 98.9996 28.0428 99.538 28.0346Z" fill="#9C612A"/>
<path d="M101.722 31.9004V28.0925H102.327L102.318 31.9004H101.722ZM101.656 26.9086C101.656 26.6851 101.838 26.5527 102.02 26.5527C102.202 26.5527 102.385 26.6851 102.385 26.9086C102.385 27.132 102.202 27.2814 102.02 27.2814C101.838 27.2814 101.656 27.132 101.656 26.9086Z" fill="#9C612A"/>
<path d="M104.983 30.8574C105.108 31.1967 105.571 31.5029 106.167 31.5029C106.755 31.5029 107.062 31.2877 107.062 30.8574C107.062 30.3774 106.375 30.2698 106.018 30.17C105.662 30.0707 104.694 29.8886 104.694 29.0936C104.694 28.3819 105.307 28.0178 106.134 28.0178C106.904 28.0178 107.434 28.3571 107.6 28.7709L107.177 29.0192C107.07 28.7461 106.639 28.4978 106.118 28.4978C105.58 28.4978 105.282 28.713 105.282 29.0693C105.282 29.5162 105.911 29.6155 106.267 29.7148C106.623 29.8141 107.641 30.021 107.641 30.8408C107.641 31.6022 107.103 31.9999 106.159 31.9999C105.298 31.9999 104.744 31.6188 104.553 31.1139L104.983 30.8574Z" fill="#9C612A"/>
<path d="M113.144 29.5578V31.9004H112.548V29.6406C112.548 28.9118 112.035 28.556 111.472 28.556C110.901 28.556 110.404 28.9118 110.404 29.6406V31.9004H109.808V26.5196H110.404V28.6056C110.694 28.2084 111.158 28.0346 111.629 28.0346C112.391 28.0346 113.144 28.4815 113.144 29.5578Z" fill="#9C612A"/>
<path d="M29.8835 12.6061C30.1152 12.4098 30.4525 12.3082 30.7979 12.3454C31.6679 12.4392 32.2954 13.1256 32.8376 13.7445C32.8233 13.6544 32.7518 13.4057 32.7157 13.2999C32.6586 13.1316 32.5898 12.9675 32.5107 12.8089C32.3577 12.5017 32.1652 12.2144 31.9398 11.9555C31.2947 11.2148 30.2433 10.5642 29.2666 10.4005C27.8054 10.1559 26.3738 10.7978 25.1656 11.5532C24.8324 11.7615 24.5115 11.9895 24.204 12.2341C23.9139 12.4654 23.6977 12.6167 23.2762 12.9215C24.3599 11.779 25.5257 10.6116 27.0185 10.0254C28.4421 9.46718 29.9202 9.74812 31.4188 10.2603C30.6046 8.68787 29.0319 7.56325 27.2928 7.31865C25.5537 7.07405 23.7164 7.71588 22.4965 8.97935C21.6641 9.84144 21.13 10.9399 20.5078 11.9643C19.8855 12.9886 19.1148 13.9942 18.0196 14.4811C19.6411 15.5234 21.603 15.6255 23.4571 15.3395C25.3501 15.0471 27.2887 14.4756 28.8815 13.3845C29.2307 13.1454 29.5638 12.8834 29.8835 12.6061Z" fill="#449834"/>
<path d="M33.0301 12.1747C32.6944 10.6151 31.6678 9.37142 31.6678 9.37142C30.957 8.08818 29.1624 7.2192 29.1624 7.2192V1.22645H33.1325V12.5352L33.0301 12.1747ZM20.0274 15.9656V22.6917H16.0894V1.22645H20.0274V11.4841C20.0274 11.4841 19.2687 12.8267 18.7752 13.1821C18.7752 13.1821 18.3802 13.715 16.6823 14.3665C16.6823 14.3665 19.0685 16.0249 20.0274 15.9656Z" fill="#449834"/>
<path d="M33.1325 14.594V22.6917H29.1624V13.7393C29.1624 13.7393 30.1681 12.9513 30.5115 12.8326C30.8159 12.7273 31.1728 12.9416 31.4178 13.1007C31.7515 13.3168 32.053 13.5894 32.3379 13.8612C32.5981 14.109 32.8612 14.3559 33.1325 14.594Z" fill="#449834"/>
</svg>
