<svg width="18" height="18" viewBox="0 0 18 18" fill="none" xmlns="http://www.w3.org/2000/svg">
<path d="M16.5 6V9M7.6875 4.12499H5.1C3.83988 4.12499 3.20982 4.12499 2.72852 4.37023C2.30516 4.58595 1.96095 4.93015 1.74523 5.35352C1.5 5.83482 1.5 6.46488 1.5 7.725L1.5 8.62499C1.5 9.32391 1.5 9.67336 1.61418 9.94902C1.76642 10.3166 2.05843 10.6086 2.42597 10.7608C2.70163 10.875 3.05109 10.875 3.75 10.875V14.0625C3.75 14.2366 3.75 14.3237 3.75722 14.397C3.82737 15.1092 4.39081 15.6726 5.10298 15.7428C5.17631 15.75 5.26338 15.75 5.4375 15.75C5.61163 15.75 5.69869 15.75 5.77203 15.7428C6.48419 15.6726 7.04764 15.1092 7.11778 14.397C7.125 14.3237 7.125 14.2366 7.125 14.0625V10.875H7.6875C9.01232 10.875 10.6329 11.5852 11.8832 12.2667C12.6126 12.6643 12.9773 12.8632 13.2162 12.8339C13.4377 12.8068 13.6052 12.7073 13.735 12.5258C13.875 12.3301 13.875 11.9385 13.875 11.1553V3.84471C13.875 3.06149 13.875 2.66988 13.735 2.47416C13.6052 2.29267 13.4377 2.19322 13.2162 2.16609C12.9773 2.13684 12.6126 2.33564 11.8832 2.73326C10.6329 3.41483 9.01232 4.12499 7.6875 4.12499Z" stroke="#888888" stroke-width="1.5" stroke-linecap="round" stroke-linejoin="round"/>
</svg>
