<svg width="18" height="18" viewBox="0 0 18 18" fill="none" xmlns="http://www.w3.org/2000/svg">
<path d="M14.25 15.75L16.5 13.5M16.5 13.5L14.25 11.25M16.5 13.5H12M11.625 2.46807C12.7244 2.91311 13.5 3.99098 13.5 5.25C13.5 6.50902 12.7244 7.58689 11.625 8.03193M9 11.25H6C4.60218 11.25 3.90326 11.25 3.35195 11.4784C2.61687 11.7828 2.03284 12.3669 1.72836 13.1019C1.5 13.6533 1.5 14.3522 1.5 15.75M10.125 5.25C10.125 6.90685 8.78185 8.25 7.125 8.25C5.46815 8.25 4.125 6.90685 4.125 5.25C4.125 3.59315 5.46815 2.25 7.125 2.25C8.78185 2.25 10.125 3.59315 10.125 5.25Z" stroke="#888888" stroke-width="1.5" stroke-linecap="round" stroke-linejoin="round"/>
</svg>
